<svg xmlns="http://www.w3.org/2000/svg" viewBox="-26.64 -35.64 275.28 275.28"><path d="M 102.058 6.073 C 84.318 8.244, 68.136 14.894, 55.224 25.318 C 50.673 28.993, 46.677 32, 46.346 32 C 45.653 32, 40.004 27.075, 31.881 19.388 C 28.791 16.463, 25.979 14.355, 25.631 14.702 C 25.284 15.049, 25 14.850, 25 14.260 C 25 12.469, 20.972 14.113, 19.370 16.557 C 16.817 20.455, 16.948 81.757, 19.514 83.634 C 22.463 85.790, 82.674 85.617, 85.777 83.443 C 90.465 80.160, 88.952 76.230, 79.011 65.869 C 74.067 60.716, 70.017 56.014, 70.011 55.420 C 70.005 54.825, 72.138 52.823, 74.750 50.971 C 77.362 49.119, 79.831 47.130, 80.235 46.551 C 80.693 45.896, 80.981 45.877, 81 46.500 C 81.017 47.050, 81.410 46.902, 81.874 46.170 C 83.293 43.932, 99.855 38.949, 107.950 38.324 C 129.947 36.628, 158.112 52.823, 167.389 72.500 C 182.235 103.993, 170.176 141.287, 140.312 156.237 C 128.589 162.105, 122.333 163.399, 109 162.711 C 92.409 161.856, 78.152 155.446, 65.852 143.313 C 61.217 138.741, 58.795 137.007, 57.852 137.587 C 52.309 140.992, 37 155.519, 37 157.373 C 37 160.287, 50.719 175.056, 58.050 180.034 C 61.242 182.202, 67.951 185.778, 72.960 187.982 C 94.794 197.591, 113.816 199.261, 136.330 193.548 C 163.274 186.711, 190.430 163.078, 200.295 137.882 C 206.742 121.415, 208.544 92.680, 204.144 76.500 C 191.837 31.246, 147.321 0.535, 102.058 6.073" stroke="none" fill="#000" fill-rule="evenodd"/></svg>
