<svg xmlns="http://www.w3.org/2000/svg" viewBox="-33.24 -59.74 343.48 343.48"><path d="M 174.250 19.162 C 172.463 20.274, 171 21.619, 171 22.151 C 171 22.683, 170.550 22.840, 170 22.500 C 169.450 22.160, 169 22.385, 169 23 C 169 23.615, 168.588 23.864, 168.085 23.553 C 167.582 23.242, 167.020 23.354, 166.835 23.802 C 166.651 24.250, 164.293 26.122, 161.596 27.962 C 158.898 29.803, 157.025 30.677, 157.432 29.904 C 157.840 29.132, 157.195 29.625, 156 31 C 154.805 32.375, 154.074 33.007, 154.377 32.404 C 154.679 31.802, 152.842 32.364, 150.294 33.654 C 143.794 36.945, 142.892 36.782, 127.250 29.477 C 119.568 25.890, 112.595 23.218, 111.755 23.541 C 110.914 23.863, 106.369 29.918, 101.654 36.996 C 91.724 51.903, 94.812 50.486, 70.028 51.511 C 62.069 51.840, 55.410 52.257, 55.230 52.437 C 55.050 52.616, 54.936 54.504, 54.976 56.632 C 55.234 70.469, 55.082 77.165, 54.467 79.103 C 54.115 80.212, 50.122 82.018, 42.717 84.419 C 31.345 88.105, 14.932 95.671, 14.340 97.500 C 13.907 98.838, 21.315 103, 24.129 103 C 28.946 103, 65.534 91.792, 67.665 89.664 C 68.466 88.865, 68.584 86.934, 68.042 83.500 C 64.510 61.092, 64.859 60.590, 81.662 63.884 C 87.623 65.053, 93.496 66.007, 94.714 66.005 C 97.041 66, 102.120 60.455, 111.443 47.741 C 114.310 43.831, 117.127 41, 118.152 41 C 119.123 41, 124.724 43.250, 130.598 46 C 136.472 48.750, 142.145 51, 143.204 51 C 145.553 51, 162 41.094, 162 39.679 C 162 39.122, 162.299 38.966, 162.665 39.332 C 163.031 39.697, 165.326 38.827, 167.765 37.398 C 172.987 34.337, 172.432 33.900, 178.993 46.244 C 181.842 51.603, 184.618 56.264, 185.163 56.601 C 185.708 56.938, 195.847 55.945, 207.694 54.394 L 229.233 51.574 232.631 46.537 L 236.029 41.500 229.764 41.162 C 226.319 40.976, 219.900 41.352, 215.500 41.997 C 211.100 42.642, 204.125 43.019, 200 42.835 L 192.500 42.500 187.985 33.500 C 185.502 28.550, 182.802 22.925, 181.985 21.001 C 180.218 16.838, 178.604 16.454, 174.250 19.162 M 264 53.051 C 254.858 54.077, 237.586 58.054, 236.783 59.316 C 234.436 63.008, 237.827 68.396, 241.596 66.963 C 243.862 66.102, 248.974 65.610, 249.017 66.250 C 249.276 70.113, 257.800 103.841, 259.270 106.822 C 260.258 108.825, 260.903 109.054, 263.958 108.483 C 265.906 108.119, 267.701 107.624, 267.946 107.382 C 268.787 106.551, 268.614 97.121, 267.767 97.644 C 267.301 97.932, 267.229 96.938, 267.606 95.435 C 268.137 93.320, 267.994 92.886, 266.976 93.515 C 266.035 94.096, 265.835 93.873, 266.273 92.731 C 266.610 91.852, 265.343 84.954, 263.458 77.402 C 259.658 62.181, 259.819 61, 265.694 61 C 269.546 61, 272 59.130, 272 56.194 C 272 53.174, 269.977 52.380, 264 53.051 M 207.796 66.640 C 203.209 68.544, 200.372 73.970, 199.504 82.500 C 198.464 92.730, 205.223 113.020, 211.087 117.271 C 217.151 121.668, 230.441 119.759, 236.592 113.608 C 239.820 110.380, 239.823 110.366, 239.476 101.438 C 238.866 85.752, 233.700 70.617, 227.710 66.965 C 223.734 64.541, 213.267 64.370, 207.796 66.640 M 212.441 74.422 C 209.828 76.337, 210.119 83.534, 213.301 95.703 C 216.276 107.078, 218.044 110, 221.952 110 C 224.865 110, 227.889 107.884, 228.127 105.679 C 228.746 99.954, 224.329 79.403, 221.779 76.137 C 219.011 72.593, 215.754 71.995, 212.441 74.422 M 164.500 77.185 C 156.467 79.511, 154.645 80.677, 155.561 82.910 C 156.364 84.869, 162.639 110.606, 164.969 121.500 L 166.681 129.500 172.840 129.798 C 179.927 130.140, 179.604 130.882, 177.424 119.247 C 175.528 109.126, 175.726 108.462, 181.129 106.843 C 188.239 104.713, 193.002 99.317, 192.990 93.405 C 192.979 87.634, 189.345 79.055, 185.884 76.632 C 182.690 74.394, 173.303 74.637, 164.500 77.185 M 142.620 83.314 C 138.911 84.219, 138.540 84.694, 134.197 94.130 C 131.698 99.559, 129.343 104, 128.963 104 C 128.056 104, 125 95.962, 125 93.577 C 125 90.567, 122.104 89.076, 118.554 90.257 C 113.817 91.833, 113.780 92.050, 116.454 102.628 C 118.691 111.475, 123.391 132.832, 124.726 140.217 C 125.331 143.561, 127.944 144.504, 132.468 143.011 C 136.790 141.584, 137.553 139.219, 135.623 133.230 C 130.678 117.891, 132.640 116.212, 143.221 126.728 C 147.775 131.254, 151.817 135.246, 152.203 135.599 C 152.590 135.951, 154.453 135.950, 156.343 135.595 C 162.398 134.459, 161.771 132.036, 152.665 121.379 C 140.720 107.401, 141.149 108.420, 143.780 100.252 C 144.999 96.467, 146.155 92.002, 146.350 90.329 C 146.545 88.656, 147.020 86.777, 147.406 86.152 C 148.938 83.673, 146.667 82.327, 142.620 83.314 M 169.080 86.250 C 169.124 87.487, 169.917 90.750, 170.842 93.500 C 172.422 98.197, 172.722 98.491, 175.790 98.350 C 185.980 97.880, 183.326 84, 173.045 84 C 169.493 84, 169.010 84.274, 169.080 86.250 M 89.027 97 C 87.117 97.461, 85.391 98.328, 85.191 98.926 C 84.992 99.523, 84.489 99.802, 84.073 99.545 C 83.657 99.288, 81.884 100.556, 80.132 102.364 C 75.425 107.220, 75.077 112.666, 78.518 127.571 C 83.089 147.372, 86.936 153.020, 95.827 152.978 C 102.809 152.945, 115.090 146.573, 113.410 143.855 C 113.120 143.385, 113.294 143, 113.797 143 C 115.162 143, 114.662 130.502, 113.227 128.773 C 111.918 127.196, 107.520 127.462, 105.250 129.257 C 104.556 129.805, 104 132.414, 104 135.122 C 104 141.450, 101.113 144.943, 97.677 142.771 C 94.561 140.803, 87.800 126.998, 87.800 122.604 C 87.800 120.622, 87.437 119, 86.994 119 C 86.550 119, 86.411 118.146, 86.684 117.102 C 86.956 116.058, 86.667 114.247, 86.041 113.076 C 85.107 111.331, 85.283 110.412, 87.019 107.974 C 90.308 103.354, 94.589 104.652, 96.479 110.843 C 97.112 112.917, 97.613 113.112, 100.847 112.540 C 109.321 111.040, 110.167 109.668, 106.487 103.388 C 102.888 97.246, 96.972 95.082, 89.027 97 M 47.982 108.684 C 39.377 110.886, 39.817 109.401, 40.053 135.437 C 40.167 148.122, 39.990 159.175, 39.659 160 C 38.461 162.982, 41.271 164.954, 45.393 164.024 C 50.285 162.921, 50.282 162.925, 50.150 157.050 C 50.025 151.533, 49.276 152.128, 58.946 150.070 C 64.258 148.940, 64.473 149.046, 67.035 154.068 C 68.634 157.202, 69.594 157.997, 71.770 157.986 C 76.012 157.965, 79 156.899, 79 155.408 C 79 154.246, 73.011 142.665, 67.154 132.500 C 66.203 130.850, 63.499 125.307, 61.144 120.182 C 55.304 107.468, 54.721 106.959, 47.982 108.684 M 15.750 117.203 C 11.409 118.356, 11.234 119.222, 13.475 128.436 C 17.304 144.175, 20 157.603, 20 160.934 C 20 168.027, 15.702 169, 10.880 163 C 9.112 160.800, 6.991 159, 6.166 159 C 5.341 159, 4.960 159.293, 5.318 159.651 C 5.676 160.009, 5.248 160.830, 4.366 161.474 C 2.117 163.119, 3.381 168.127, 6.804 171.133 C 8.960 173.025, 10.633 173.500, 15.155 173.500 C 18.442 173.500, 20.326 173.150, 19.655 172.663 C 18.959 172.159, 19.394 172.023, 20.751 172.320 C 22.200 172.637, 22.765 172.429, 22.337 171.737 C 21.912 171.049, 22.292 170.898, 23.388 171.319 C 24.332 171.681, 24.860 171.583, 24.563 171.102 C 24.265 170.620, 24.722 169.646, 25.577 168.936 C 29.726 165.492, 31.244 154.443, 28.492 147.720 C 28.091 146.741, 27.641 144.491, 27.491 142.720 C 27.342 140.949, 27.133 139.500, 27.027 139.500 C 26.922 139.500, 26.635 138.150, 26.390 136.500 C 25.358 129.557, 22.670 118.409, 21.749 117.250 C 20.632 115.846, 20.853 115.847, 15.750 117.203 M 49.570 130.646 C 50.376 140.970, 51.004 142.133, 55.337 141.325 C 60.093 140.438, 60.101 140.154, 55.634 131.082 C 49.926 119.489, 48.692 119.400, 49.570 130.646 M 228.500 130.055 C 219.150 133.282, 210.905 135.939, 210.179 135.961 C 206.729 136.063, 206 138.675, 206 150.929 L 206 163 190.155 163 C 171.929 163, 174.441 161.763, 164.700 175.530 C 156.710 186.821, 155.639 187.539, 150.464 185.070 C 140.936 180.526, 136.409 178.705, 135.150 178.912 C 134.346 179.044, 134.093 178.659, 134.525 177.960 C 135.040 177.126, 134.599 176.993, 133 177.500 C 131.762 177.893, 130.988 177.829, 131.279 177.357 C 132.414 175.521, 123.522 176.353, 122.182 178.209 C 121.456 179.212, 120.482 179.798, 120.017 179.510 C 119.552 179.223, 119.020 179.350, 118.835 179.792 C 118.161 181.409, 99.811 193.001, 98.858 192.412 C 98.317 192.078, 95.642 187.129, 92.913 181.415 C 89.080 173.388, 87.410 170.890, 85.568 170.428 C 82.321 169.613, 46.449 176.791, 41.616 179.223 C 36.575 181.760, 33 185.382, 33 187.955 C 33 190.960, 41.745 190.686, 61.494 187.065 C 80.456 183.587, 78.450 182.698, 85.951 197.900 C 88.946 203.971, 92.044 209.187, 92.834 209.490 C 94.314 210.058, 112.626 199.881, 121.497 193.560 C 124.245 191.602, 127.028 190, 127.682 190 C 128.335 190, 135.437 193.420, 143.463 197.599 C 154.499 203.346, 158.377 204.932, 159.370 204.108 C 160.093 203.508, 160.980 203.238, 161.342 203.509 C 161.704 203.779, 161.782 203.707, 161.516 203.349 C 161.249 202.991, 161.812 202.057, 162.766 201.275 C 163.923 200.325, 164.001 200.067, 163 200.500 C 161.999 200.933, 162.077 200.675, 163.234 199.725 C 164.188 198.943, 164.676 198.009, 164.318 197.651 C 163.960 197.293, 164.148 197, 164.736 197 C 165.324 197, 168.886 192.217, 172.652 186.372 L 179.500 175.744 198.656 176.338 C 214.458 176.828, 218.016 176.685, 218.982 175.521 C 219.781 174.558, 220.067 169.814, 219.883 160.582 C 219.734 153.142, 219.812 146.864, 220.056 146.632 C 220.300 146.400, 227.250 143.527, 235.500 140.248 C 251.004 134.087, 258.295 130.063, 257.157 128.298 C 256.066 126.605, 250.252 123.994, 247.800 124.094 C 246.535 124.146, 237.850 126.828, 228.500 130.055" stroke="none" fill="#000" fill-rule="evenodd"/></svg>
