<svg xmlns="http://www.w3.org/2000/svg" viewBox="-30.96 -77.46 319.92 319.92"><path d="M 25.046 7.855 C 22.596 8.883, 20.421 10.236, 20.213 10.862 C 20.004 11.488, 19.354 12, 18.768 12 C 17.033 12, 11.360 18.375, 9.030 22.940 C 5.923 29.031, 5.253 39.236, 7.515 46.044 C 11.287 57.400, 22.281 65.104, 35.500 65.655 C 39.350 65.815, 42.750 65.958, 43.055 65.973 C 43.360 65.988, 46.285 69.851, 49.555 74.557 C 54.467 81.628, 60.203 89.770, 66.495 98.603 C 67.176 99.559, 67.089 100.552, 66.220 101.750 C 52.323 120.903, 57.775 146.125, 78.167 157.015 C 94.245 165.602, 117.080 160.163, 126.844 145.422 C 135.333 132.605, 134.182 111.848, 124.379 100.998 C 120.313 96.498, 120.348 97.088, 123.837 91.800 C 125.397 89.435, 129.885 82.531, 133.810 76.457 L 140.947 65.414 149.012 65.543 L 157.078 65.672 163.561 74.586 C 167.127 79.489, 173.421 88.105, 177.548 93.733 L 185.050 103.967 182.301 109.233 C 178.578 116.366, 178.270 131.719, 181.701 139.217 C 184.854 146.109, 191.962 153.174, 199.692 157.097 C 208.773 161.707, 224.236 162.132, 232.500 158 C 238.992 154.754, 246.956 146.813, 250.049 140.500 C 253.572 133.312, 253.633 117.004, 250.164 109.337 C 247.922 104.380, 238.392 94, 236.084 94 C 235.488 94, 235 93.523, 235 92.941 C 235 92.359, 234.550 92.160, 234 92.500 C 233.450 92.840, 233 92.615, 233 92 C 233 91.385, 232.550 91.160, 232 91.500 C 231.450 91.840, 231 91.695, 231 91.178 C 231 88.240, 212.413 87.038, 205.500 89.529 C 203.300 90.321, 201.251 90.977, 200.947 90.985 C 200.184 91.006, 187.813 75.546, 179.053 63.623 L 171.797 53.747 174.898 47.733 C 187.201 23.878, 163.448 -0.502, 137.288 9.131 C 119.545 15.664, 113.821 35.075, 124.641 52.016 C 126.359 54.707, 124.133 58.517, 107.559 81.250 L 102.637 88 97.062 88 C 93.996 88, 90.001 88.426, 88.186 88.947 C 83.734 90.223, 83.032 89.799, 79.122 83.469 C 77.264 80.461, 75.325 78, 74.813 78 C 74.301 78, 74.160 77.550, 74.500 77 C 74.840 76.450, 74.641 76, 74.059 76 C 73.477 76, 73.112 75.607, 73.250 75.127 C 73.387 74.646, 70.575 69.839, 67 64.444 C 58.944 52.285, 59.412 53.844, 62.133 48.243 C 65.291 41.742, 65.385 30.490, 62.336 23.851 C 56.061 10.182, 37.985 2.429, 25.046 7.855" stroke="none" fill="#000" fill-rule="evenodd"/></svg>
