<svg xmlns="http://www.w3.org/2000/svg" viewBox="-66.64 -29.64 306.28 306.28"><path d="M 77.314 6.857 C 71.157 8.985, 63.699 13.705, 64.485 14.976 C 64.792 15.472, 64.423 16.242, 63.667 16.689 C 62.006 17.669, 59.609 21.994, 60.715 22.015 C 61.147 22.024, 60.940 22.386, 60.255 22.821 C 58.344 24.035, 58.347 36.327, 60.259 38.750 C 60.801 39.438, 60.852 40.007, 60.372 40.015 C 59.893 40.024, 59.950 40.361, 60.500 40.765 C 62.210 42.022, 66.350 48.333, 64.885 47.451 C 63.712 46.744, 63.708 46.873, 64.863 48.297 C 65.613 49.222, 66.595 49.750, 67.045 49.472 C 67.495 49.194, 68.456 49.807, 69.182 50.834 C 73.345 56.732, 90.301 58.732, 98.595 54.304 C 127.299 38.978, 108.119 -3.787, 77.314 6.857 M 64.235 74.037 C 60.101 75.698, 60 77.546, 60 151.565 C 60 221.667, 60.037 223.037, 62 225 C 64.734 227.734, 105.979 228.104, 109.798 225.429 L 112.041 223.858 111.976 149.440 C 111.912 77.538, 111.846 74.988, 110.021 74.011 C 107.659 72.747, 67.389 72.770, 64.235 74.037" stroke="none" fill="#000" fill-rule="evenodd"/></svg>
